<?xml version="1.0" encoding="UTF-8"?><svg id="Layer_1" xmlns="http://www.w3.org/2000/svg" viewBox="0 0 384.97 73.1"><g><path d="M30.6,71.95l-2.5-13.6H11.7l-2.4,13.6H.2L15.4,1.34h8.8l15.6,70.6h-9.2ZM19.7,14.44l-6.5,36.3h13.4L19.7,14.44Z"/><path d="M74.6,71.95l-12-31h-7.3v31h-8.7V1.34h15.4c11.5,0,18.7,3,18.7,19.6,0,8.8-1.7,17.3-9.5,19l12.6,32h-9.2Zm-19.3-37.9h6.2c9,0,10.4-3,10.4-13.4,0-9.5-3.1-11.3-10.3-11.3h-6.3v24.7Z"/><path d="M106.1,9.24v62.7h-8.7V9.24h-13.4V1.34h35.5v7.9h-13.4Z"/><path d="M189.1,22.14v-4.5c0-4.8-.8-9.9-7.6-9.9-4.2,0-7.4,2-7.4,8.5,0,6,3.6,9,7,12.6l11.1,11.8c1.7,1.8,6.1,6.3,6.1,15.3,0,8.4-3.4,12-6.4,14-4.4,3-9.3,3-11,3-10.8,0-17-5.8-17-17.6v-7.8h8.3v6.5c0,5.9,1.2,11.4,8.7,11.4,5.5,0,8.9-3.4,8.9-8.8,0-5.8-2.7-8.5-6.6-12.5l-9.5-9.8c-5.5-5.7-8.1-9.5-8.1-17.7,0-9.5,4.3-16.4,16.4-16.4,2.4,0,11.9,.1,14.3,9.2,.6,2.4,.6,5.7,.6,8.2v4.5h-7.8Z"/><path d="M223.6,9.24v62.7h-8.7V9.24h-13.4V1.34h35.5v7.9h-13.4Z"/><path d="M276.7,1.34V48.95c0,8.7-.1,12.2-1.7,15.8-3.2,7.5-11.7,8.2-15.4,8.2-7.6,0-13.1-2.3-15.6-7.7-1.4-3.1-1.6-5.1-1.6-15.7V1.34h8.9V54.85c0,6.1,1.5,10.5,8.5,10.5,5.2,0,8-1.9,8-9.9V1.34h8.9Z"/><path d="M300.2,1.34c6.9,0,13.2,0,17.4,5.3,3.3,4.1,3.6,7.8,3.6,24.9v16.1c0,6.9-.5,13.7-3,17.9-3.9,6.4-10.6,6.4-18.2,6.4h-13.1V1.34h13.3Zm-4.5,62.8h7c9,0,9.9-3.8,9.9-19.1V25.25c0-11.3-.2-15.8-10.7-15.8h-6.2v54.7Z"/><path d="M331.1,71.95V1.34h8.7V71.95h-8.7Z"/><path d="M384.6,42.35c0,22.3-3,30.6-18,30.6-16,0-16.9-10.7-16.9-26.2V23.24c0-8.9,1.5-14,4-17.2,2.2-2.8,6.3-5.8,14.3-5.8,13.4,0,16.6,8.3,16.6,22.1v20Zm-25.9,7.9c0,5.1,.2,8.1,.9,10.3,.7,2.1,2.3,5.1,7.5,5.1,7.3,0,8.5-5.3,8.5-19.7V22.74c0-7.8,0-15.1-8.2-15.1-7.1,0-8.7,5.3-8.7,15.1v27.5Z"/></g><path d="M110.14,71.41v-5.9h52v5.9h-52Z"/></svg>