<?xml version="1.0" encoding="UTF-8"?><svg id="Make2D::Visible::Curves" xmlns="http://www.w3.org/2000/svg" viewBox="0 0 908.48 425.49"><defs><style>.cls-1{stroke-linecap:round;}.cls-1,.cls-2{stroke-linejoin:round;}.cls-1,.cls-2,.cls-3{fill:#fff;stroke:#fff;}.cls-2{stroke-width:6px;}.cls-3{stroke-miterlimit:10;}</style></defs><path class="cls-1" d="m901.63,85.98v36.87c-18.18,28.23-36.36,56.46-54.55,84.7-3.95-6.14-7.91-12.29-11.87-18.43h0c22.15-34.39,44.28-68.76,66.42-103.14Z"/><path class="cls-1" d="m907.22,300.93v36.86c-24-37.27-48.01-74.54-72.01-111.81v-36.86c3.96,6.14,7.92,12.29,11.87,18.43,20.05,31.13,40.1,62.25,60.14,93.38Z"/><path class="cls-2" d="m517.73,388.63v36.87"/><path class="cls-2" d="m719.78,300.93v36.87"/><path class="cls-2" d="m719.78,0v300.93"/><path class="cls-1" d="m668.38,161.3v37.66c0-41.6-33.73-75.32-75.33-75.32s-75.32,33.72-75.32,75.32v-37.66c0-41.6,33.73-75.32,75.32-75.32s75.33,33.72,75.33,75.32Z"/><path class="cls-1" d="m668.38,224.81v37.66c0,41.6-33.73,75.32-75.33,75.32s-75.32-33.72-75.32-75.32v-37.66c0,41.6,33.73,75.32,75.32,75.32s75.33-33.72,75.33-75.32Z"/><path class="cls-1" d="m668.38,224.81v-25.85"/><path class="cls-1" d="m150.17,262.67v36.86c-1.36,3.08-2.92,5.99-4.67,8.71-.88,1.36-1.81,2.68-2.78,3.95-.98,1.27-2,2.5-3.08,3.68-1.07,1.18-2.2,2.32-3.37,3.41-1.17,1.09-2.4,2.14-3.67,3.15-.64.5-1.28.99-1.94,1.47-.66.48-1.34.94-2.02,1.4-.69.46-1.38.9-2.09,1.34-.36.21-.72.43-1.08.64-.36.21-.72.42-1.09.63-.37.2-.74.41-1.1.61-.37.19-.74.39-1.11.58-.74.39-1.48.76-2.22,1.12-.75.36-1.49.71-2.24,1.05-.75.33-1.5.65-2.25.96-1.51.62-3.02,1.19-4.54,1.7-.76.26-1.53.5-2.29.74-.77.23-1.54.45-2.31.65-.77.21-1.54.4-2.31.58-.78.18-1.56.35-2.33.5-.78.16-1.57.3-2.35.43-.39.06-.78.12-1.18.18-.39.06-.78.11-1.18.17-.39.05-.79.1-1.18.14-.4.05-.79.09-1.19.13-.39.04-.79.07-1.19.1-.4.04-.79.06-1.19.09-.2.01-.4.02-.6.04-.2.01-.4.02-.6.03s-.4.02-.6.02c-.2,0-.4.02-.6.03h-.3c-.1.01-.2.01-.3.01-.1.01-.2.01-.3.01h-.3c-.11.01-.21.01-.31.01h-2.36c-.24-.01-.48-.01-.72-.01-.25-.01-.48-.01-.72-.02-.24,0-.48-.01-.72-.02-.24,0-.48,0-.72-.02-.23-.01-.47-.02-.71-.03-.23,0-.47-.01-.7-.03-.47-.02-.94-.04-1.41-.07-.46-.03-.93-.06-1.39-.09-.46-.03-.92-.07-1.38-.1-.46-.04-.91-.08-1.36-.13-.91-.08-1.81-.18-2.69-.29-.89-.11-1.77-.23-2.64-.36-.87-.13-1.73-.27-2.59-.42-.85-.15-1.69-.31-2.53-.49-.83-.17-1.66-.36-2.48-.55-.82-.2-1.62-.4-2.42-.62-1.6-.43-3.17-.91-4.7-1.43-1.53-.52-3.02-1.09-4.48-1.69-1.46-.61-2.88-1.26-4.27-1.95-1.39-.7-2.74-1.44-4.06-2.22-1.32-.78-2.6-1.6-3.85-2.47-1.24-.87-2.45-1.78-3.63-2.73-1.18-.96-2.32-1.96-3.43-3-1.1-1.04-2.17-2.12-3.21-3.25-1.03-1.13-2.03-2.3-3-3.51-.48-.61-.96-1.23-1.42-1.86-.46-.63-.92-1.27-1.37-1.92-.45-.65-.88-1.31-1.31-1.98-.43-.68-.85-1.36-1.27-2.05-.41-.69-.81-1.39-1.21-2.09-.4-.7-.79-1.4-1.18-2.11-.39-.7-.77-1.41-1.14-2.12-.37-.71-.74-1.42-1.1-2.14-.72-1.43-1.42-2.87-2.09-4.32-.67-1.45-1.31-2.91-1.93-4.38-.62-1.47-1.21-2.95-1.77-4.44-.57-1.49-1.11-3-1.63-4.51-1.03-3.02-1.95-6.09-2.78-9.2-.82-3.11-1.54-6.25-2.16-9.45-.31-1.59-.59-3.2-.85-4.81-.26-1.62-.49-3.24-.7-4.88-.2-1.64-.38-3.29-.54-4.94-.15-1.66-.28-3.33-.38-5.01-.05-.84-.1-1.68-.14-2.52-.04-.85-.07-1.69-.09-2.54-.02-.43-.03-.85-.04-1.28,0-.42-.02-.85-.02-1.28-.01-.43-.01-.85-.02-1.28v-36.87c.01.43.01.86.02,1.29,0,.42.01.85.02,1.28.01.42.02.85.04,1.27.02.85.05,1.7.09,2.54.04.85.09,1.69.14,2.53.1,1.68.23,3.34.38,5,.11,1.19.24,2.37.38,3.54.05.47.1.94.16,1.4.21,1.64.44,3.27.7,4.88.26,1.62.54,3.22.85,4.82.62,3.19,1.34,6.34,2.16,9.45.83,3.1,1.75,6.17,2.78,9.2.52,1.51,1.06,3.01,1.63,4.5.56,1.49,1.15,2.98,1.77,4.45.62,1.47,1.26,2.93,1.93,4.38.67,1.45,1.37,2.89,2.09,4.32.36.71.73,1.43,1.1,2.14.37.7.75,1.41,1.14,2.12.39.7.78,1.4,1.18,2.1.4.7.8,1.4,1.21,2.09.42.69.84,1.38,1.27,2.05.43.67.86,1.34,1.31,1.99.45.65.91,1.29,1.37,1.92.46.63.94,1.24,1.42,1.85.97,1.22,1.97,2.39,3,3.51,1.04,1.13,2.11,2.22,3.21,3.26,1.11,1.04,2.25,2.04,3.43,2.99,1.18.96,2.39,1.87,3.63,2.73,1.25.87,2.53,1.7,3.85,2.48,1.32.78,2.67,1.52,4.06,2.21s2.81,1.34,4.27,1.95c1.46.61,2.95,1.17,4.48,1.69,1.53.52,3.1,1,4.7,1.44.8.21,1.6.42,2.42.61.82.2,1.65.38,2.48.56.84.17,1.68.33,2.53.48.86.16,1.72.3,2.59.43.87.13,1.75.25,2.64.36.88.1,1.78.2,2.69.29.45.04.9.08,1.36.12.46.04.92.07,1.38.11.46.03.93.06,1.39.09.47.02.94.05,1.41.07.23.01.47.02.7.03.24.01.48.02.71.03.24,0,.48,0,.72.02.24,0,.48.01.72.02.24,0,.47.01.72.01s.48.01.72.01.47,0,.73,0h1.33c.11,0,.2,0,.3,0h.31c.1,0,.2,0,.3-.01h.3c.1-.01.2-.01.3-.01s.2-.01.3-.01c.2-.01.4-.01.6-.02.2,0,.4-.02.6-.03s.4-.02.6-.03.4-.02.6-.04c.4-.02.79-.05,1.19-.08.4-.03.8-.07,1.19-.11.4-.04.79-.08,1.19-.12.39-.05.79-.1,1.18-.15.4-.05.79-.11,1.18-.16.4-.06.79-.12,1.18-.19.78-.13,1.57-.27,2.35-.42.77-.16,1.55-.32,2.33-.5.77-.18,1.54-.38,2.31-.58.77-.21,1.54-.43,2.31-.66.76-.23,1.53-.48,2.29-.73,1.52-.52,3.03-1.08,4.54-1.7.75-.31,1.5-.63,2.25-.97.75-.33,1.49-.68,2.24-1.04.74-.36,1.48-.74,2.22-1.12.37-.19.74-.39,1.11-.59.36-.2.73-.4,1.1-.61.37-.2.73-.41,1.09-.63.36-.21.72-.42,1.08-.64.71-.43,1.4-.88,2.09-1.34.68-.45,1.36-.92,2.02-1.4.66-.48,1.3-.97,1.94-1.47,1.27-1,2.5-2.05,3.67-3.14,1.17-1.1,2.3-2.23,3.37-3.42,1.08-1.18,2.1-2.41,3.08-3.68.97-1.27,1.9-2.59,2.78-3.95,1.75-2.72,3.31-5.62,4.67-8.7Z"/><path class="cls-1" d="m835.21,189.12v36.86c-24,37.27-48,74.54-72.01,111.81v-36.86c20.05-31.13,40.1-62.25,60.14-93.38,3.96-6.14,7.91-12.29,11.87-18.43Z"/><path class="cls-1" d="m835.21,189.11h0c-3.96,6.15-7.91,12.3-11.87,18.44-18.18-28.24-36.36-56.47-54.55-84.7v-36.87c22.14,34.38,44.28,68.75,66.42,103.13Z"/><path class="cls-1" d="m517.73,224.81v-25.85"/><path class="cls-2" d="m517.73,388.63V85.98"/><path class="cls-3" d="m665.38,285.25h0v-40.51h0c1.68-9.22,2.4-18.6,2.14-27.97l.11-23.75-2.25-54.58h0c3.97,10.89,6,22.39,6,33.98v75.86c0,12.57-2.03,25.05-6,36.97h0Z"/><path class="cls-3" d="m202.61,337.78h-6v-155.98l9.94-27.38h0c-2.61,7.18-3.94,14.76-3.94,22.4v160.96Z"/><path class="cls-2" d="m199.61,181.8v-95.82"/><path class="cls-1" d="m454.95,149.82v33.63c0-35.26-28.59-63.84-63.84-63.84s-62.95,27.69-63.82,62.19c-.01.55-.02,1.1-.02,1.65,0-35.26-28.59-63.84-63.84-63.84s-62.95,27.69-63.82,62.19v-33.63c.87-34.5,29.11-62.19,63.82-62.19s63.84,28.58,63.84,63.84c0-35.26,28.58-63.84,63.84-63.84s63.84,28.58,63.84,63.84Z"/><path class="cls-3" d="m457.95,337.78h-6v-166.39c.12-3.79-.53-8.2-1.64-10.9l1.64-26.94v-4.64h0c3.98,13.37,6,27.25,6,41.2v167.68Z"/><path class="cls-1" d="m151.03,123.81v36.87c-3.44-6.31-7.37-11.82-11.79-16.55-2.21-2.37-4.55-4.54-7.01-6.51-2.46-1.97-5.04-3.74-7.74-5.32-2.71-1.57-5.54-2.95-8.49-4.13-1.47-.59-2.98-1.14-4.52-1.63-1.53-.49-3.1-.94-4.7-1.33-1.6-.39-3.23-.74-4.89-1.03-1.66-.3-3.35-.55-5.07-.74-1.72-.2-3.48-.35-5.26-.45-.89-.05-1.79-.08-2.7-.11-.45-.01-.91-.02-1.36-.02-.46-.01-.92-.01-1.38-.01h-1.41c-.46.01-.93.02-1.39.03-.92.02-1.84.05-2.75.1-.9.04-1.8.1-2.69.16-.9.07-1.78.14-2.65.23-.88.09-1.75.19-2.6.3-.86.1-1.71.22-2.55.36-1.69.26-3.34.56-4.96.91-1.62.35-3.2.74-4.76,1.18-1.55.44-3.07.92-4.56,1.44-2.98,1.05-5.82,2.27-8.53,3.67-2.72,1.4-5.3,2.97-7.75,4.71-1.23.88-2.42,1.79-3.58,2.76-1.16.96-2.29,1.96-3.38,3.01-1.1,1.05-2.16,2.14-3.19,3.27-1.03,1.14-2.03,2.32-2.99,3.54-.48.61-.96,1.23-1.42,1.87-.47.63-.92,1.27-1.37,1.93-.45.65-.89,1.32-1.33,2-.21.33-.43.67-.64,1.02-.21.34-.42.69-.63,1.04-.21.35-.42.7-.62,1.05-.21.35-.41.7-.61,1.05-.4.7-.8,1.41-1.19,2.11-.39.71-.78,1.42-1.15,2.13-.38.71-.75,1.43-1.12,2.14-.72,1.43-1.43,2.87-2.1,4.32-.68,1.45-1.33,2.9-1.96,4.37-.62,1.46-1.22,2.93-1.79,4.42-.58,1.48-1.12,2.97-1.64,4.46-1.04,3-1.98,6.03-2.81,9.09-.84,3.07-1.57,6.16-2.19,9.29s-1.15,6.3-1.56,9.49c-.07.49-.13.98-.18,1.46-.14-1.17-.27-2.35-.38-3.54-.15-1.66-.28-3.32-.38-5-.05-.84-.1-1.68-.14-2.53-.04-.84-.07-1.69-.09-2.54-.02-.42-.03-.85-.04-1.27,0-.43-.02-.86-.02-1.28-.01-.43-.01-.86-.02-1.29v-2.53c.01-.42.01-.83.02-1.25,0-.41.01-.83.02-1.24.01-.41.02-.83.04-1.24.02-.82.06-1.64.09-2.46.04-.83.09-1.64.14-2.46.11-1.63.24-3.26.39-4.87.16-1.62.34-3.22.55-4.82.41-3.2.94-6.36,1.56-9.49s1.35-6.23,2.19-9.29c.83-3.07,1.77-6.1,2.81-9.09.52-1.5,1.06-2.99,1.64-4.47.57-1.48,1.17-2.95,1.79-4.42.63-1.46,1.28-2.92,1.96-4.37.67-1.44,1.38-2.88,2.1-4.31.37-.72.74-1.43,1.12-2.14.37-.71.76-1.42,1.15-2.13.39-.71.79-1.41,1.19-2.12.2-.35.4-.7.61-1.05.2-.35.41-.7.62-1.05.21-.35.42-.69.63-1.04.21-.34.43-.68.64-1.02.44-.68.88-1.34,1.33-2,.45-.65.9-1.3,1.37-1.93.46-.63.94-1.26,1.42-1.87.96-1.22,1.96-2.4,2.99-3.53,1.03-1.14,2.09-2.23,3.19-3.28,1.09-1.05,2.22-2.05,3.38-3.01s2.35-1.88,3.58-2.75c2.45-1.75,5.03-3.32,7.75-4.72,2.71-1.39,5.55-2.62,8.53-3.66,1.49-.53,3.01-1.01,4.56-1.44,1.56-.44,3.14-.83,4.76-1.18s3.27-.66,4.96-.92c.84-.13,1.69-.25,2.55-.36.85-.11,1.72-.21,2.6-.3.87-.08,1.75-.16,2.65-.22.89-.07,1.79-.12,2.69-.17.91-.04,1.83-.07,2.75-.1.46-.01.93-.02,1.39-.02.24,0,.47,0,.7,0h.71c.46,0,.92,0,1.38,0,.45.01.91.02,1.36.03.91.02,1.81.06,2.7.11,1.78.1,3.54.24,5.26.44,1.72.2,3.41.45,5.07.74,1.66.3,3.29.64,4.89,1.04,1.6.39,3.17.83,4.7,1.33,1.54.49,3.05,1.03,4.52,1.62,2.95,1.18,5.78,2.56,8.49,4.14,2.7,1.57,5.28,3.35,7.74,5.32,2.46,1.97,4.8,4.14,7.01,6.5,4.42,4.73,8.35,10.25,11.79,16.55Z"/><path class="cls-1" d="m199.61,181.8c-.01.55-.02,1.1-.02,1.65"/><path class="cls-1" d="m199.61,148.17c-.01.55-.02,1.1-.02,1.65"/><path class="cls-3" d="m330.29,337.78h-6v-163.78c0-8.49-2.27-16.88-6.87-24.02-.03-.05-.07-.1-.1-.15h19.98c-1.18,1.61-2.27,3.53-3.28,5.76-2.56,5.67-3.74,11.86-3.74,18.08v164.12Z"/></svg>