<?xml version="1.0" encoding="UTF-8"?><svg id="Layer_1" xmlns="http://www.w3.org/2000/svg" viewBox="0 0 264.44 75.14"><g><path d="M33.74,55.97c0,12.3-4.9,15.6-8.8,17.1-3.3,1.2-6.8,1.2-7.8,1.2C1.34,74.27,.14,61.17,.14,53.07V25.27C.14,19.87,.34,12.17,3.94,7.37,7.04,3.16,12.94,1.56,17.84,1.56c6.3,0,9.9,2.6,11.8,4.5,2.7,2.8,3.7,6.4,3.7,14.2v4.6h-8.2v-6.7c0-5.1-1.5-9.2-7.3-9.2-2.2,0-6.7,.5-8,6.2-.6,2.6-1,7.2-1,13.1v17.7c0,6.8,.2,14.8,1.7,17.4,1.9,3.4,6.1,3.5,7.1,3.5,7.8,0,7.9-8,7.9-13.2v-5.3h8.2v7.6Z"/><path d="M134.74,73.27c.1-7.3,1.2-63.9,1.2-63.9l-10.5,63.9h-11.1l-10.5-63.9s1.2,58.1,1.4,63.9h-8.6V2.66h13.2l9.9,63L129.44,2.66h13.4V73.27h-8.1Z"/><path d="M169.74,2.66c6.9,0,9.7,2,11.9,4.7,3.6,4.4,3.7,9.5,3.7,16.5,0,4.9-.3,11.9-3.7,16-3.3,4-9.3,4.4-14,4.4h-7.4v29h-8.8V2.66h18.3Zm-9.5,33.9h7.5c8.9,0,9-4.6,9-13.5,0-10-1.5-12.4-11.9-12.4h-4.6v25.9Z"/><path d="M192.44,73.27V2.66h9v62.7h20.7v7.9h-29.7Z"/><path d="M255.04,73.27l-10.8-30.6-10.1,30.6h-9.2l13.5-38.5L225.83,2.66h9.7l8.5,27.1,7.9-27.1h9.4l-11.6,32.1,14.8,38.5h-9.5Z"/></g><path d="M37.75,72.73v-5.9h52v5.9H37.75Z"/></svg>